<?xml version="1.0" encoding="UTF-8"?>
<svg width="24px" height="24px" viewBox="0 0 24 24" version="1.1" xmlns="http://www.w3.org/2000/svg" xmlns:xlink="http://www.w3.org/1999/xlink">
    <!-- Generator: Sketch 51.2 (57519) - http://www.bohemiancoding.com/sketch -->
    <title>02 / Map</title>
    <desc>Created with Sketch.</desc>
    <defs>
        <path d="M12,1 C9.10041667,1 6.75,3.35041667 6.75,6.25 C6.75,8.59416667 10.18125,12.8666667 11.4958333,14.4175 C11.7620833,14.7316667 12.2383333,14.7316667 12.5041667,14.4175 C13.81875,12.8666667 17.25,8.59416667 17.25,6.25 C17.25,3.35041667 14.8995833,1 12,1 Z M12,8 C11.0333333,8 10.25,7.21666667 10.25,6.25 C10.25,5.28333333 11.0333333,4.5 12,4.5 C12.9666667,4.5 13.75,5.28333333 13.75,6.25 C13.75,7.21666667 12.9666667,8 12,8 Z M0.838333333,9.99791667 C0.332111574,10.2003909 0.000121240451,10.6906212 0,11.2358333 L0,21.6658333 C0,22.1375 0.47625,22.46 0.914166667,22.285 L6.66666667,19.6666667 L6.66666667,9.955 C6.29833333,9.28916667 5.99708333,8.64083333 5.78125,8.02083333 L0.838333333,9.99791667 Z M12,15.98625 C11.41375,15.98625 10.8591667,15.72875 10.47875,15.2795833 C9.65958333,14.3129167 8.78833333,13.2120833 8,12.0829167 L8,19.66625 L16,22.3329167 L16,12.0833333 C15.2116667,13.2120833 14.3408333,14.3133333 13.52125,15.28 C13.1408333,15.72875 12.58625,15.98625 12,15.98625 Z M23.0858333,7.715 L17.3333333,10.3333333 L17.3333333,22.3333333 L23.1616667,20.0020833 C23.6679641,19.799703 23.9999941,19.3094142 24,18.7641667 L24,8.33416667 C24,7.8625 23.52375,7.54 23.0858333,7.715 Z" id="path-1"></path>
    </defs>
    <g id="02-/-Map" stroke="none" stroke-width="1" fill="none" fill-rule="evenodd">
        <mask id="mask-2" fill="white">
            <use xlink:href="#path-1"></use>
        </mask>
        <g id="Shape" fill-rule="nonzero"></g>
        <g id="01-/-Accent" mask="url(#mask-2)" fill="#F7C51E">
            <rect id="Color" x="0" y="0" width="24" height="24"></rect>
        </g>
    </g>
</svg>