<?xml version="1.0" encoding="UTF-8"?>
<svg width="24px" height="24px" viewBox="0 0 24 24" version="1.1" xmlns="http://www.w3.org/2000/svg" xmlns:xlink="http://www.w3.org/1999/xlink">
    <!-- Generator: Sketch 51.2 (57519) - http://www.bohemiancoding.com/sketch -->
    <title>02 / Road</title>
    <desc>Created with Sketch.</desc>
    <defs>
        <path d="M23.3788482,17.694451 C23.6262434,18.21673 23.749941,18.766497 23.749941,19.3437525 C23.749941,19.6186363 23.653732,19.8522869 23.4613132,20.0447056 C23.2688945,20.2371243 23.0352439,20.3333333 22.7603601,20.3333333 L13.9365973,20.3333333 C14.1015275,20.3333333 14.2320974,20.2783568 14.3283064,20.1684032 C14.4245155,20.0584496 14.4588763,19.9347519 14.4313878,19.7973104 L14.0190624,15.5091266 C13.9915738,15.371685 13.929725,15.2617314 13.833516,15.1792663 C13.7373069,15.0968012 13.6342256,15.0555687 13.524272,15.0555687 L10.225669,15.0555687 C10.1157154,15.0555687 10.0126341,15.0968012 9.91642502,15.1792663 C9.82021598,15.2617314 9.77211114,15.371685 9.77211114,15.5091266 L9.31855324,19.7973104 C9.29106467,19.9347519 9.32542554,20.0584496 9.42163458,20.1684032 C9.51784362,20.2783568 9.64841353,20.3333333 9.81334368,20.3333333 L0.989580875,20.3333333 C0.714697089,20.3333333 0.481046468,20.2371243 0.288627755,20.0447056 C0.096209042,19.8522869 0,19.6186363 0,19.3437525 C0,18.766497 0.123697609,18.21673 0.371092828,17.694451 L6.01995032,5.07729485 C6.1024154,4.9123647 6.22611301,4.77492313 6.39104315,4.66496948 C6.5559733,4.55501584 6.73464741,4.50003934 6.92706613,4.50003934 L10.8853896,4.50003934 L10.8029246,5.28345753 C10.8029246,5.42089911 10.8510294,5.54459672 10.9472384,5.65455036 C11.0434475,5.764504 11.1602734,5.81948051 11.297715,5.81948051 L12.452226,5.81948051 C12.5896676,5.81948051 12.7064935,5.764504 12.8027026,5.65455036 C12.8989116,5.54459672 12.9470164,5.42089911 12.9470164,5.28345753 L12.8645514,4.50003934 L16.8228749,4.50003934 C17.0152936,4.50003934 17.1939677,4.55501584 17.3588978,4.66496948 C17.523828,4.77492313 17.6475256,4.9123647 17.7299907,5.07729485 L23.3788482,17.694451 Z M10.5142968,8.25220016 C10.4868082,8.38964174 10.5211691,8.51333934 10.6173781,8.62329298 C10.7135872,8.73324663 10.8441571,8.78822313 11.0090872,8.78822313 L12.7408538,8.78822313 C12.9057839,8.78822313 13.0363538,8.73324663 13.1325629,8.62329298 C13.2287719,8.51333934 13.2631328,8.38964174 13.2356442,8.25220016 L13.1119466,6.93275899 C13.1119466,6.79531741 13.0638418,6.68536377 12.9676327,6.6028987 C12.8714237,6.52043363 12.7545977,6.47920109 12.6171562,6.47920109 L11.1327848,6.47920109 C10.9953433,6.47920109 10.8785173,6.52043363 10.7823083,6.6028987 C10.6860992,6.68536377 10.6379944,6.79531741 10.6379944,6.93275899 L10.5142968,8.25220016 Z M13.2768767,13.7361275 C13.4143183,13.7361275 13.5311443,13.681151 13.6273533,13.5711974 C13.7235623,13.4612437 13.7716672,13.3375461 13.7716672,13.2001045 L13.4418069,10.2313619 C13.4418069,10.0939203 13.393702,9.98396669 13.297493,9.90150162 C13.201284,9.81903654 13.084458,9.77780401 12.9470164,9.77780401 L10.8029246,9.77780401 C10.665483,9.77780401 10.548657,9.81903654 10.452448,9.90150162 C10.356239,9.98396669 10.3081341,10.0939203 10.3081341,10.2313619 L9.97827382,13.2001045 C9.97827382,13.3375461 10.0263787,13.4612437 10.1225877,13.5711974 C10.2187967,13.681151 10.3356227,13.7361275 10.4730643,13.7361275 L13.2768767,13.7361275 Z" id="path-1"></path>
    </defs>
    <g id="02-/-Road" stroke="none" stroke-width="1" fill="none" fill-rule="evenodd">
        <mask id="mask-2" fill="white">
            <use xlink:href="#path-1"></use>
        </mask>
        <g id=""></g>
        <g id="01-/-Accent" mask="url(#mask-2)" fill="#F7C51E">
            <rect id="Color" x="0" y="0" width="24" height="24"></rect>
        </g>
    </g>
</svg>