<?xml version="1.0" encoding="UTF-8"?>
<svg width="24px" height="24px" viewBox="0 0 24 24" version="1.1" xmlns="http://www.w3.org/2000/svg" xmlns:xlink="http://www.w3.org/1999/xlink">
    <!-- Generator: Sketch 51.2 (57519) - http://www.bohemiancoding.com/sketch -->
    <title>02 / Person</title>
    <desc>Created with Sketch.</desc>
    <defs>
        <path d="M13.7309942,4.49122807 C14.9707602,4.49122807 15.9766082,3.48538012 15.9766082,2.24561404 C15.9766082,1.00584795 14.9707602,0 13.7309942,0 C12.4912281,0 11.4853801,1.00584795 11.4853801,2.24561404 C11.4853801,3.48538012 12.4912281,4.49122807 13.7309942,4.49122807 Z M18.1520468,11.4666667 L17.0619883,10.9146199 L16.6081871,9.53918129 C15.9204678,7.45263158 14.0023392,5.99298246 11.8269006,5.98830409 C10.1426901,5.98362573 9.21169591,6.46081871 7.4619883,7.16725146 C6.45146199,7.57426901 5.62339181,8.34619883 5.13684211,9.32865497 L4.82339181,9.96491228 C4.45847953,10.7040936 4.75321637,11.6023392 5.4877193,11.9719298 C6.21754386,12.3415205 7.10643275,12.0421053 7.47602339,11.302924 L7.78947368,10.6666667 C7.95321637,10.3391813 8.2245614,10.0818713 8.56140351,9.94619883 L9.81520468,9.44093567 L9.10409357,12.2807018 C8.86081871,13.2538012 9.12280702,14.2877193 9.80116959,15.0315789 L12.6035088,18.0912281 C12.9403509,18.4608187 13.1789474,18.9052632 13.3005848,19.3871345 L14.1567251,22.8163743 C14.3578947,23.6163743 15.1719298,24.1076023 15.9719298,23.9064327 C16.7719298,23.7052632 17.2631579,22.8912281 17.0619883,22.0912281 L16.0233918,17.9274854 C15.9017544,17.445614 15.6631579,16.9964912 15.3263158,16.6315789 L13.1976608,14.3064327 L14.0023392,11.0923977 L14.2596491,11.8643275 C14.5076023,12.6175439 15.0409357,13.2397661 15.7426901,13.5953216 L16.8327485,14.1473684 C17.5625731,14.5169591 18.451462,14.2175439 18.8210526,13.4783626 C19.1812865,12.7438596 18.8865497,11.8362573 18.1520468,11.4666667 Z M7.44327485,18.0491228 C7.29356725,18.4280702 7.06900585,18.7695906 6.77894737,19.0549708 L4.43976608,21.3988304 C3.85497076,21.9836257 3.85497076,22.9333333 4.43976608,23.5181287 C5.0245614,24.102924 5.96959064,24.102924 6.55438596,23.5181287 L9.33333333,20.7391813 C9.61871345,20.4538012 9.84327485,20.1122807 9.99766082,19.7333333 L10.6292398,18.1520468 C8.04210526,15.3309942 8.81871345,16.1964912 8.41169591,15.6397661 L7.44327485,18.0491228 Z" id="path-1"></path>
    </defs>
    <g id="02-/-Person" stroke="none" stroke-width="1" fill="none" fill-rule="evenodd">
        <mask id="mask-2" fill="white">
            <use xlink:href="#path-1"></use>
        </mask>
        <g id="Shape" fill-rule="nonzero"></g>
        <g id="01-/-Accent" mask="url(#mask-2)" fill="#F7C51E">
            <rect id="Color" x="0" y="0" width="24" height="24"></rect>
        </g>
    </g>
</svg>