<?xml version="1.0" encoding="UTF-8"?>
<svg width="24px" height="24px" viewBox="0 0 24 24" version="1.1" xmlns="http://www.w3.org/2000/svg" xmlns:xlink="http://www.w3.org/1999/xlink">
    <!-- Generator: Sketch 51.2 (57519) - http://www.bohemiancoding.com/sketch -->
    <title>02 / Sports / Basketball</title>
    <desc>Created with Sketch.</desc>
    <defs>
        <path d="M12.2950213,4.47608511 C11.0589845,4.47608511 10.0569787,3.47407932 10.0569787,2.23804255 C10.0569787,1.00200578 11.0589845,0 12.2950213,0 C13.531058,0 14.5330638,1.00200578 14.5330638,2.23804255 C14.5330638,3.47407932 13.531058,4.47608511 12.2950213,4.47608511 Z M9.92148936,13.1144255 L9.92153191,13.1144255 L9.92153191,12.8170213 C10.4179574,13.0786809 11.1678723,13.2100851 12.1664681,13.2100851 C12.2478298,13.2100851 12.3308511,13.2088511 12.4158723,13.2076596 C13.3713191,13.1873191 14.1233191,13.0750213 14.6685532,12.872766 L14.6685532,13.4102128 C14.1546383,13.5253617 13.3851489,13.6494894 12.4093617,13.6645532 C11.2008085,13.6833191 10.3609362,13.4867234 9.91740426,13.3455319 L9.91740426,13.1563404 C9.91740426,13.1417021 9.92106383,13.1278298 9.92148936,13.1144255 Z M9.91744681,16.9044681 L9.91744681,16.3348085 C10.2401277,16.476 10.8399149,16.6090638 11.951617,16.6428511 L11.951617,17.1067234 C10.7231489,17.1140426 10.1579149,16.9907234 9.91744681,16.9044681 Z M14.6685532,16.3844255 L14.6685532,16.8084681 C14.6583404,16.8174468 14.6465532,16.8239149 14.637617,16.8345106 C14.586766,16.8715319 14.2030213,17.1014043 12.6254043,17.1067234 L12.6254043,16.6489362 C13.6122128,16.6351064 14.2543404,16.5186809 14.6685532,16.3844255 Z M14.3975319,4.95093617 L14.3975319,4.95131915 L14.6685532,4.95131915 L14.6685532,4.96514894 C14.9126809,5.0066383 15.1352766,5.15638298 15.2569362,5.39280851 L17.2235745,9.22434043 C17.2825532,9.33953191 17.3134894,9.46770213 17.3134894,9.59668085 L17.3134894,13.9702128 C17.3134894,14.4190638 16.9488936,14.783617 16.4996596,14.783617 C16.0504255,14.783617 15.6858298,14.4194468 15.6858298,13.9702128 L15.6858298,11.9498723 C15.7281277,11.77 15.6988511,11.6381702 15.6935745,11.6165957 L15.6858298,11.6182128 L15.6858298,9.79280851 L14.9834894,8.42438298 L14.9977447,8.41787234 C14.2543404,6.79225532 14.3011064,5.55276596 14.3975319,4.95093617 Z M12.6254468,22.9552766 L12.6254468,17.7170638 C13.6760851,17.7134043 14.2966383,17.6128936 14.66,17.4891915 L14.66,22.9552766 C14.66,23.517234 14.2046809,23.9729787 13.6427234,23.9729787 C13.0811915,23.9729787 12.6254468,23.517234 12.6254468,22.9552766 Z M9.91744681,22.9552766 L9.91706383,22.9552766 L9.91706383,17.5400426 C10.3048511,17.6409787 10.9090638,17.7174468 11.8527234,17.7174468 C11.8844681,17.7174468 11.9194468,17.7166809 11.951617,17.7162553 L11.951617,22.9552766 C11.951617,23.517234 11.4962553,23.9729787 10.9343404,23.9729787 C10.3728085,23.9729787 9.91744681,23.517234 9.91744681,22.9552766 Z M9.70625532,7.03676596 L7.05480851,9.00217021 L6.32480851,10.6839149 C6.52540426,10.6261277 6.73617021,10.5931915 6.95510638,10.5931915 C8.22425532,10.5931915 9.25782979,11.6226809 9.25782979,12.8853191 C9.25782979,14.1568936 8.22425532,15.1807234 6.95510638,15.1807234 C5.69365957,15.1807234 4.66659574,14.1569362 4.66659574,12.8853191 C4.66659574,12.879617 4.66740426,12.8739574 4.66740426,12.8678298 C4.61451064,12.8564255 4.56242553,12.8405532 4.51114894,12.8182128 C4.09851064,12.6387234 3.90970213,12.1602128 4.08876596,11.747617 L5.64846809,8.15293617 C5.70544681,8.02229787 5.79578723,7.90838298 5.91055319,7.82374468 L9.57276596,5.11042553 C9.66838298,5.03965957 9.77459574,4.99731915 9.88365957,4.97331915 C9.91502128,5.33259574 9.93574468,6.09519149 9.70625532,7.03676596 Z M9.92148936,12.0560426 L9.92148936,12.056 L9.92114894,12.056 L9.92114894,7.76306383 C10.3569362,6.49387234 10.3357872,5.43221277 10.2918298,4.95085106 L11.244383,4.95085106 C11.4128511,5.49574468 11.8795745,6.79012766 12.515617,6.79012766 C13.2048936,6.79012766 13.5080426,5.49574468 13.6053191,4.95085106 L13.9825106,4.95085106 C13.880766,5.63408511 13.8628511,6.91587234 14.6274468,8.58706383 L14.6681277,8.56834043 L14.6681277,12.2090213 C14.3116596,12.3860851 13.646,12.570383 12.4028511,12.5964255 C10.6490638,12.6342979 10.0968936,12.2774043 9.92514894,12.0613617 C9.92353191,12.0601277 9.9227234,12.0580851 9.92148936,12.0560426 Z M12.2970638,10.9663404 C11.9927234,10.9663404 11.8075319,10.7457872 11.8165106,10.498383 C11.8165106,10.264383 11.9711489,10.0751915 12.2400851,9.99991489 C12.562,10.0882128 12.7739574,10.2468936 12.7739574,10.5382553 C12.7739574,10.7856596 12.5843404,10.9663404 12.2970638,10.9663404 Z M12.3458723,9.59748936 C12.0724681,9.52344681 11.8779149,9.38221277 11.8778723,9.14787234 C11.8778723,8.94034043 12.0194894,8.7592766 12.2929362,8.7592766 C12.5839149,8.7592766 12.7031489,8.96676596 12.7031489,9.1653617 C12.7031489,9.38221277 12.5444681,9.54051064 12.3458723,9.59748936 Z M11.3619574,9.17021277 C11.3619574,9.42170213 11.4986809,9.65974468 11.7981702,9.80544681 L11.7981702,9.81885106 C11.4673617,9.96408511 11.2598298,10.2070213 11.2598298,10.5598298 C11.2598298,10.9610638 11.6085532,11.3496596 12.2791489,11.3496596 C12.8928085,11.3496596 13.3249362,11.0054043 13.3249362,10.4939149 C13.3249362,10.1362128 13.0913191,9.88923404 12.778,9.77 L12.778,9.75740426 C13.0913191,9.60234043 13.2195319,9.3512766 13.2195319,9.10795745 C13.2195319,8.75514894 12.941617,8.38446809 12.3194468,8.38446809 C11.7765957,8.38446809 11.3619574,8.70225532 11.3619574,9.17021277 Z" id="path-1"></path>
    </defs>
    <g id="02-/-Sports-/-Basketball" stroke="none" stroke-width="1" fill="none" fill-rule="evenodd">
        <mask id="mask-2" fill="white">
            <use xlink:href="#path-1"></use>
        </mask>
        <g id="Combined-Shape" fill-rule="nonzero"></g>
        <g id="01-/-Accent" mask="url(#mask-2)" fill="#F7C51E">
            <rect id="Color" x="0" y="0" width="24" height="24"></rect>
        </g>
    </g>
</svg>