<?xml version="1.0" encoding="UTF-8"?>
<svg width="24px" height="24px" viewBox="0 0 24 24" version="1.1" xmlns="http://www.w3.org/2000/svg" xmlns:xlink="http://www.w3.org/1999/xlink">
    <!-- Generator: Sketch 51.2 (57519) - http://www.bohemiancoding.com/sketch -->
    <title>02 / Sports / Cycling</title>
    <desc>Created with Sketch.</desc>
    <defs>
        <path d="M15.3656751,6.6157414 C14.426417,6.07222676 14.1144047,4.8826384 14.6657726,3.95784374 C15.2171405,3.03375426 16.4242532,2.72457852 17.3641825,3.26809316 C18.3025011,3.81151966 18.6152293,5.00154875 18.0631455,5.92590268 C17.5124935,6.84999216 16.3039938,7.15952048 15.3656751,6.6157414 Z M18.5861934,13.3035895 C21.0201042,13.3035895 23,15.2539308 23,17.6515744 C23,20.049306 21.0201042,22 18.5861934,22 C16.1524616,22 14.1725658,20.049306 14.1725658,17.6515744 C14.1725658,17.0246726 14.3109447,16.4297242 14.55464,15.8908373 L13.7013709,15.383507 L12.3887627,17.5032229 C12.1452463,17.8958739 11.7199987,18.1131123 11.2847294,18.1131123 C11.0555744,18.1131123 10.8235113,18.0527756 10.613639,17.9267253 C10.004781,17.5607829 9.81226753,16.7775965 10.18347,16.1776677 L11.6241222,13.8517759 L8.92718872,12.7736495 L8.13230446,12.7736495 L7.64209527,13.9042234 C8.94736617,14.6603927 9.82797105,16.0548348 9.82797105,17.6515303 C9.82797105,20.049262 7.84829899,21.9999559 5.41434344,21.9999559 C2.98061159,21.9999559 1,20.049262 1,17.6515303 C1,15.2539308 2.98061159,13.3035895 5.41443292,13.3035454 C5.83462501,13.3035454 6.2396952,13.3652924 6.62534851,13.4739336 L6.92944196,12.7729002 C6.52294011,12.7711373 6.19428475,12.4469765 6.19428475,12.0465686 C6.19428475,11.6642308 6.49636493,11.3600354 6.87678373,11.3305502 C6.83061271,11.0962113 6.84873215,10.8462704 6.94675609,10.6084497 C7.0259895,10.4164213 7.14991754,10.2581093 7.29840748,10.1306046 L7.29769165,10.1295468 L12.0796137,6.31476334 C12.4407051,6.02687511 13.5992756,5.51632746 14.5488239,6.57814669 C15.0099972,7.09389501 15.0439544,7.82494248 14.7620964,8.40640442 L14.8659365,9.23780729 L17.1844645,8.38366248 C17.6580306,8.20763285 18.1927555,8.44576207 18.3714445,8.91651133 C18.5501782,9.38686393 18.3073777,9.91050142 17.8301877,10.0862225 L17.6198232,10.1636597 L18.2654569,13.3195441 C18.3714445,13.3121397 18.4781926,13.3035895 18.5861934,13.3035895 Z M5.41434344,20.9093126 C7.04822497,20.9093126 8.3996669,19.7332989 8.66479236,18.1968079 L6.33543744,18.1968079 C6.14654785,18.5059836 5.80652869,18.7151125 5.4142987,18.7151125 C4.81828091,18.7151125 4.33473788,18.2387218 4.33473788,17.6515303 C4.33473788,17.1140978 4.74119499,16.6742881 5.26724042,16.6029331 L6.18332361,14.49212 C5.93551228,14.4335904 5.68027421,14.3941005 5.41434344,14.3941005 C3.59094597,14.3941005 2.10707553,15.8552699 2.10707553,17.6515303 C2.10707553,19.4477906 3.59094597,20.9093126 5.41434344,20.9093126 Z M8.6648371,17.1062968 C8.50695189,16.1900965 7.96497925,15.4047504 7.2018152,14.9187958 L6.28573201,17.0299614 C6.30380671,17.0544663 6.3195997,17.0803815 6.33548218,17.1062968 L8.6648371,17.1062968 Z M14.2777928,14.4527183 L15.1281091,14.9581975 C15.6529466,14.3057331 16.3620208,13.8055868 17.1793194,13.5340058 L16.5696561,10.5506252 L14.4154558,11.3439926 C14.3108552,11.3823807 14.2014675,11.4015526 14.0925271,11.4015526 C13.9261414,11.4015526 13.7602479,11.3571706 13.6139054,11.269861 C13.3725365,11.1253439 13.2110274,10.8796781 13.1772045,10.6034694 L13.0964947,9.95598529 L11.6450155,11.1142815 L14.0038984,12.0572344 C14.354834,12.1977849 14.6258203,12.4828964 14.7448718,12.837512 C14.8637442,13.1921275 14.8183338,13.5801949 14.6207648,13.8989786 L14.2777928,14.4527183 Z M17.7949778,16.5443594 L17.4013609,14.6194925 C16.8905268,14.8140771 16.4471598,15.1314505 16.0947478,15.5333129 L17.7949778,16.5443594 Z M18.5861934,20.9093126 C20.4096356,20.9093126 21.8929245,19.4477906 21.8929692,17.6515303 C21.8929692,15.8552699 20.4096804,14.3941005 18.5862382,14.3941005 C18.5523705,14.3941005 18.5207397,14.4030034 18.4869168,14.4040612 L18.9467032,16.6537058 C19.3645241,16.8006028 19.6652174,17.1897279 19.6652174,17.6515303 C19.6652174,18.2386777 19.1822112,18.7151125 18.5861934,18.7151125 C17.9908915,18.7151125 17.5073484,18.2387218 17.5073484,17.6515303 C17.5073484,17.650164 17.5080643,17.6487537 17.5080643,17.6473433 L15.5153283,16.4622945 C15.3675542,16.831895 15.2796414,17.2308926 15.2796414,17.6515303 C15.2796414,19.4477906 16.7627512,20.9093126 18.5861934,20.9093126 Z" id="path-1"></path>
    </defs>
    <g id="02-/-Sports-/-Cycling" stroke="none" stroke-width="1" fill="none" fill-rule="evenodd">
        <mask id="mask-2" fill="white">
            <use xlink:href="#path-1"></use>
        </mask>
        <g id="Combined-Shape" fill-rule="nonzero"></g>
        <g id="01-/-Accent" mask="url(#mask-2)" fill="#F7C51E">
            <rect id="Color" x="0" y="0" width="24" height="24"></rect>
        </g>
    </g>
</svg>