<?xml version="1.0" encoding="UTF-8"?>
<svg width="24px" height="24px" viewBox="0 0 24 24" version="1.1" xmlns="http://www.w3.org/2000/svg" xmlns:xlink="http://www.w3.org/1999/xlink">
    <!-- Generator: Sketch 51.2 (57519) - http://www.bohemiancoding.com/sketch -->
    <title>02 / Sports / Kayaking</title>
    <desc>Created with Sketch.</desc>
    <defs>
        <path d="M11.7948178,6.89363563 C11.2772632,6.89363563 10.8097976,7.47104453 10.4723887,8.40165182 L8.67127126,6.60063158 C9.36173279,3.87755466 10.4115628,1.67752227 11.1004696,0.412712551 C11.2391255,0.158234818 11.505749,-0.000388663968 11.7956437,5.08617344e-16 C12.0847126,5.08617344e-16 12.351336,0.159012146 12.4899919,0.413538462 C13.5920486,2.4382834 15.6188826,6.85661538 15.6188826,11.9819757 C15.6188826,12.4916113 15.5940567,12.9923563 15.5566964,13.4863482 L13.6495709,11.5789798 C13.5740243,8.95763563 12.7736194,6.89363563 11.7948178,6.89363563 Z M11.7948178,17.0685182 C12.3122267,17.0685182 12.7799352,16.491498 13.1172955,15.5608907 L14.9192389,17.3623482 C14.2279514,20.0849393 13.1789474,22.2842429 12.4900405,23.5494413 C12.3512874,23.8035304 12.0847126,23.9617652 11.7948178,23.9621538 C11.5057004,23.9621538 11.2382996,23.8043077 11.1004211,23.54983 C9.99758704,21.5259109 7.97133603,17.1075789 7.97133603,11.9819271 C7.97133603,11.4717571 7.99635628,10.9711093 8.0337166,10.4766316 L9.94011336,12.384 C10.0156113,15.0048583 10.8160162,17.0685182 11.7948178,17.0685182 Z M21.3945749,18.8587045 C21.6301053,19.0936518 21.6301053,19.4747854 21.3946235,19.7097328 L19.5226721,21.5812955 C19.4105911,21.6943482 19.2578462,21.7574089 19.0972308,21.7574089 C18.93817,21.7574089 18.7854251,21.6943482 18.6717895,21.5812955 L16.7935709,19.7026883 C16.2440972,19.1529231 16.1015061,18.3544615 16.3554008,17.6702186 L6.1057004,7.42012955 C5.42140891,7.67451012 4.62260729,7.53153036 4.07332794,6.98166802 L2.19510931,5.10344939 C1.95957895,4.86855061 1.95957895,4.48736842 2.19510931,4.25246964 L4.06545749,2.38090688 C4.17909312,2.26785425 4.33188664,2.20474494 4.49089879,2.20474494 C4.65146559,2.20474494 4.80425911,2.26785425 4.91634008,2.38090688 L6.7945587,4.25912551 C7.15625911,4.61990283 7.35889879,5.1097166 7.35889879,5.62022672 C7.35889879,5.85162753 7.31216194,6.07724696 7.23253441,6.29038057 L17.4848097,16.5429474 C17.6974089,16.4638057 17.9235628,16.4166802 18.1557409,16.4166802 C18.6654737,16.4166802 19.1556761,16.6192227 19.5163563,16.9804858 L21.3945749,18.8587045 Z" id="path-1"></path>
    </defs>
    <g id="02-/-Sports-/-Kayaking" stroke="none" stroke-width="1" fill="none" fill-rule="evenodd">
        <mask id="mask-2" fill="white">
            <use xlink:href="#path-1"></use>
        </mask>
        <g id="Combined-Shape" fill-rule="nonzero"></g>
        <g id="01-/-Accent" mask="url(#mask-2)" fill="#F7C51E">
            <rect id="Color" x="0" y="0" width="24" height="24"></rect>
        </g>
    </g>
</svg>