<?xml version="1.0" encoding="UTF-8"?>
<svg width="24px" height="24px" viewBox="0 0 24 24" version="1.1" xmlns="http://www.w3.org/2000/svg" xmlns:xlink="http://www.w3.org/1999/xlink">
    <!-- Generator: Sketch 51.2 (57519) - http://www.bohemiancoding.com/sketch -->
    <title>02 / Sports / Rock Climbing</title>
    <desc>Created with Sketch.</desc>
    <defs>
        <path d="M23.745117,9.71403696 C23.9125257,9.89608214 23.9869897,10.1449528 23.9463326,10.3884517 L23.3975852,13.6838932 C23.3325832,14.0760246 22.9929363,14.3539713 22.6078522,14.3539713 C22.5639918,14.3539713 22.5199343,14.3503737 22.475384,14.3429322 C22.038653,14.2700945 21.7435565,13.8572649 21.8164435,13.4207803 L22.3009281,10.5117536 L21.298152,9.42214374 C21.298152,9.42214374 20.478308,12.8506448 20.1936099,13.9918522 C20.1610349,14.1223491 20.0965749,14.2446653 20.0167885,14.3585051 L17.8203203,17.4935359 L18.4975441,21.2637043 C18.6147844,21.9172731 18.1796304,22.542308 17.525963,22.6596961 C17.4548501,22.6727064 17.3827515,22.6790144 17.3124271,22.6790144 C16.7417002,22.6790144 16.2352361,22.2703244 16.1303162,21.6887556 L15.3648789,17.4258727 C15.308501,17.1103244 15.3798111,16.785462 15.5636797,16.5232854 L16.7598357,14.8165257 L14.723039,14.7675893 L12.2120082,17.5487803 C11.7672444,18.0411006 11.0049117,18.0801807 10.5141191,17.6352197 C10.0210103,17.1902587 9.98193018,16.4302423 10.4272854,15.9370842 L13.3076797,12.7465626 C13.5418645,12.4870472 13.8886078,12.3371335 14.2290924,12.3504887 L17.1863162,12.4217002 L18.3063819,7.78772895 L15.5746694,5.25742916 C15.4336263,5.12668583 15.3443778,4.94937166 15.3226448,4.75840657 L14.9617084,1.53102259 C14.9124271,1.09074333 15.2294538,0.694275154 15.6693388,0.645338809 C16.1163203,0.595663244 16.5060862,0.913034908 16.5554168,1.35262423 L16.8825462,4.28363039 L18.7619384,6.02454209 L20.3451992,6.41184394 C20.6745462,6.49241889 20.9724517,6.66938809 21.2007721,6.92013142 L23.745117,9.71403696 Z M19.5800575,5.65976181 C18.7346366,5.08676797 18.5145462,3.93841478 19.0861602,3.09343737 C19.6590554,2.24919918 20.8066201,2.02807392 21.6519918,2.60067351 C22.4966242,3.1732731 22.7172567,4.32202053 22.1451499,5.16620945 C21.5722546,6.01123614 20.4230637,6.23196715 19.5800575,5.65976181 Z M10.4749897,3.48330185 C9.97478439,3.84882136 9.63351129,4.39126078 9.52006571,4.99973717 L9.19904723,6.71324846 C9.10506776,7.2134538 8.85777413,7.67172074 8.4899384,8.02358932 L6.35610678,10.067039 C6.01409446,10.3950554 5.77439014,10.81577 5.66809035,11.277191 L4.46809035,16.4759261 C4.41639425,16.6985791 4.33429158,16.9126571 4.22306366,17.1118522 L0.749913758,23.3520493 C0.66150308,23.5113265 0.475811088,23.5908665 0.299827515,23.5450349 C0.12300616,23.4992033 -1.95399252e-14,23.3399261 -1.95399252e-14,23.1575359 L-1.95399252e-14,1.27431622 C-1.95399252e-14,0.573338809 0.568361396,0.00502669405 1.26958522,0.00507597536 L14.3605257,0.00507597536 C14.4835318,0.00507597536 14.5921971,0.0841724846 14.6306858,0.200377823 C14.6681889,0.316977413 14.6275318,0.444960986 14.5280821,0.517355236 L10.4749897,3.48330185 Z" id="path-1"></path>
    </defs>
    <g id="02-/-Sports-/-Rock-Climbing" stroke="none" stroke-width="1" fill="none" fill-rule="evenodd">
        <mask id="mask-2" fill="white">
            <use xlink:href="#path-1"></use>
        </mask>
        <g id="Combined-Shape" fill-rule="nonzero"></g>
        <g id="01-/-Accent" mask="url(#mask-2)" fill="#F7C51E">
            <rect id="Color" x="0" y="0" width="24" height="24"></rect>
        </g>
    </g>
</svg>