<?xml version="1.0" encoding="UTF-8"?>
<svg width="24px" height="24px" viewBox="0 0 24 24" version="1.1" xmlns="http://www.w3.org/2000/svg" xmlns:xlink="http://www.w3.org/1999/xlink">
    <!-- Generator: Sketch 51.2 (57519) - http://www.bohemiancoding.com/sketch -->
    <title>02 / Running</title>
    <desc>Created with Sketch.</desc>
    <defs>
        <path d="M14.1692121,3.9161697 C13.0888727,3.9161697 12.2114909,3.03956364 12.2114909,1.95796364 C12.2114909,0.8768 13.0889212,0 14.1692121,0 C15.251297,0 16.1280485,0.8768 16.1280485,1.95791515 C16.1280485,3.03956364 15.251297,3.9161697 14.1692121,3.9161697 Z M19.8645818,9.14167273 C20.4088242,9.14167273 20.8500848,9.58288485 20.8500848,10.1272727 C20.8500848,10.6716606 20.4088727,11.1129212 19.8645818,11.1129212 L16.020703,11.1129212 C15.7003152,11.1129212 15.3991758,10.9569455 15.2152242,10.6947879 L14.2741818,9.35878788 L13.6943515,13.7844364 L15.257503,15.9570909 C15.3890909,16.1399273 15.4654545,16.3568 15.4785939,16.5819152 L15.8220121,22.7266909 C15.8581333,23.3788606 15.3591273,23.9371152 14.7068606,23.9733818 C14.6846061,23.974497 14.6613818,23.9752727 14.64,23.9752727 C14.0170667,23.9752727 13.4948364,23.4882424 13.4594424,22.8583758 L13.1353697,17.0582303 L11.8570667,15.2817939 L10.7921939,19.0178909 C10.7059879,19.3197576 10.5034182,19.5749333 10.2292364,19.7274667 C10.0521212,19.8260364 9.85420606,19.8764606 9.65478788,19.8764606 C9.54540606,19.8764606 9.43621818,19.8614788 9.32993939,19.8310788 L4.90467879,18.5651879 C4.27636364,18.3853576 3.91282424,17.7304242 4.0921697,17.102497 C4.27248485,16.4745697 4.92843636,16.1122909 5.55442424,16.2905212 L8.84169697,17.2311273 L9.74870303,14.051297 L10.0598303,11.6777697 L7.20009697,8.86564848 C6.98666667,8.65624242 6.87961212,8.36087273 6.91035152,8.06366061 C6.94055758,7.76601212 7.10380606,7.49842424 7.35471515,7.33561212 C7.35471515,7.33561212 11.4046061,4.7177697 11.4744727,4.67277576 C11.8908121,4.40484848 12.4577455,4.18429091 12.9874909,4.25357576 C13.4972121,4.32067879 13.9600485,4.58705455 14.2733091,4.99476364 C14.5867636,5.40252121 14.7253818,5.91801212 14.6582788,6.42778182 L14.6523152,6.47355152 L16.5318788,9.14167273 L19.8645818,9.14167273 Z M10.380897,9.2294303 L10.5966545,7.58467879 L9.45842424,8.32193939 L10.380897,9.2294303 Z" id="path-1"></path>
    </defs>
    <g id="02-/-Running" stroke="none" stroke-width="1" fill="none" fill-rule="evenodd">
        <mask id="mask-2" fill="white">
            <use xlink:href="#path-1"></use>
        </mask>
        <g id="Combined-Shape" fill-rule="nonzero"></g>
        <g id="01-/-Accent" mask="url(#mask-2)" fill="#F7C51E">
            <rect id="Color" x="0" y="0" width="24" height="24"></rect>
        </g>
    </g>
</svg>