<?xml version="1.0" encoding="UTF-8"?>
<svg width="24px" height="24px" viewBox="0 0 24 24" version="1.1" xmlns="http://www.w3.org/2000/svg" xmlns:xlink="http://www.w3.org/1999/xlink">
    <!-- Generator: Sketch 51.2 (57519) - http://www.bohemiancoding.com/sketch -->
    <title>02 / Sports / Swimming</title>
    <desc>Created with Sketch.</desc>
    <defs>
        <path d="M17.1764544,10.744211 C15.9562515,10.8422556 14.8878864,9.93259229 14.7898905,8.71248682 C14.6917972,7.49223529 15.6014118,6.4238215 16.8215659,6.32616633 C18.0418661,6.22807302 19.1102799,7.13778499 19.2083245,8.35793915 C19.3063692,9.57770385 18.3966572,10.6461663 17.1764544,10.744211 Z M3.89033671,9.59225963 C3.3789858,9.783286 2.8016714,9.52108722 2.61015822,9.00516024 C2.41874239,8.48918458 2.68162272,7.9160568 3.19769574,7.72464097 L7.6333144,6.07803651 C7.87769574,5.98612576 8.15308722,5.99547262 8.39274645,6.10563895 C8.39274645,6.10563895 12.6612414,8.10357809 13.3911237,8.43276268 C14.0261258,8.71910751 14.4260933,9.13436105 14.5732089,9.46033266 C14.7909128,9.94208519 14.808146,10.4903367 14.6214037,10.9844057 C14.4976065,11.3128114 14.2844787,11.5934118 14.0175091,11.81243 C12.8354239,10.9486247 11.1125355,10.9540771 9.95079919,11.8151562 C8.78107911,10.9572414 7.05585396,10.9568519 5.88472211,11.8147667 C5.695643,11.6750507 5.48937931,11.5665396 5.27707911,11.472 L10.3446329,9.18411359 L7.94064097,8.0887789 L3.89033671,9.59225963 Z M23.7433996,12.9972414 C24.0537444,13.3085112 24.0537444,13.8131927 23.7427181,14.1240243 C22.8710264,14.9928925 21.4523976,14.9948398 20.5809493,14.1244138 C20.3381258,13.8808114 19.9131359,13.8827586 19.6734767,14.1224178 C18.8283651,14.9687465 17.3559919,14.9695254 16.5108803,14.1231968 C16.2681055,13.8804219 15.8479838,13.8804219 15.6036511,14.1239757 C14.7732901,14.9531197 13.3351886,14.9714726 12.4877404,14.1675456 L12.4402272,14.1224178 C12.200568,13.8823692 11.7757241,13.8819797 11.5345071,14.1228073 C11.1110751,14.5469696 10.5501176,14.77957 9.95245436,14.77957 C9.35707911,14.77957 8.79597566,14.5473103 8.37346856,14.1259229 C8.12918458,13.8815903 7.70180933,13.8843164 7.46370791,14.1239757 C6.62015416,14.9687465 5.1454929,14.9687465 4.30189047,14.1224178 C4.06227992,13.8828073 3.63894523,13.8816389 3.39621907,14.1236349 C2.52311562,14.9944503 1.10511968,14.9940609 0.233622718,14.1240243 C-0.0777444219,13.8131927 -0.0777444219,13.3085112 0.232843813,12.9972414 C0.54411359,12.6850953 1.04903854,12.6859229 1.36040568,12.9964625 C1.60863286,13.245858 2.01726572,13.2470264 2.27016633,12.996073 C3.11294118,12.1536389 4.5845355,12.1516917 5.43023124,12.9964625 C5.671643,13.2392373 6.09726572,13.2376795 6.33536714,12.9980203 C7.16796755,12.1634239 8.66760243,12.1645923 9.49869371,12.9976308 C9.74146856,13.2388479 10.1662637,13.2376795 10.4043651,12.9987992 C11.2349209,12.1695578 12.6775497,12.1536389 13.5226613,12.9521136 L13.5693469,12.9972414 C13.8121217,13.2392373 14.2340446,13.2392373 14.4768195,12.9972414 C15.3227586,12.1509128 16.7958134,12.1516917 17.6386369,12.9972414 C17.8813631,13.2392373 18.3030426,13.2392373 18.5442596,12.9980203 C19.3862556,12.1552454 20.867927,12.1568032 21.7075862,12.9972414 C21.9565923,13.2462961 22.3652252,13.2470264 22.6155943,12.9964625 C22.9269615,12.6859229 23.4320325,12.6850953 23.7433996,12.9972414 Z M18.630572,16.9071968 C18.9823448,16.6418824 19.4819635,16.7134442 19.7466937,17.0658499 C19.9933631,17.394645 19.948284,17.8515213 19.6541014,18.1257444 C18.8144422,18.9475375 17.3452333,18.9409168 16.5116592,18.1086572 C16.268787,17.8643245 15.8471075,17.8654929 15.6043813,18.1074888 C14.7748479,18.9378012 13.3366978,18.9561542 12.4876917,18.1518377 L12.4401785,18.1067099 C12.2005193,17.8666613 11.7756755,17.8662718 11.5344584,18.1070994 C11.1110264,18.5312617 10.550069,18.7638621 9.95240568,18.7638621 C9.35703043,18.7638621 8.79592698,18.5316511 8.37341988,18.1102637 C8.12752941,17.8639838 7.70487627,17.8663205 7.46365923,18.107927 C6.62628803,18.9471968 5.1399432,18.9471968 4.30262069,18.1071481 C3.99222718,17.7955375 3.99222718,17.2908073 4.3041785,16.9803651 C4.61627586,16.6694848 5.12056795,16.6703124 5.43096146,16.9819229 C5.67159432,17.2219716 6.09721704,17.2215822 6.33604868,16.9815335 C7.17648682,16.142215 8.66210142,16.1426531 9.49864503,16.9819229 C9.74141988,17.22314 10.166215,17.2219716 10.4043164,16.9830913 C11.2348722,16.1538499 12.677501,16.1379797 13.5226126,16.9364057 L13.5692982,16.9815335 C13.812073,17.2235294 14.2339959,17.2243083 14.4767708,16.9807546 C15.3242191,16.1352535 16.7965436,16.1359838 17.6393671,16.9823124 C17.8790264,17.2211927 18.3046004,17.2223611 18.5442596,16.9819229 L18.630572,16.9071968 Z" id="path-1"></path>
    </defs>
    <g id="02-/-Sports-/-Swimming" stroke="none" stroke-width="1" fill="none" fill-rule="evenodd">
        <mask id="mask-2" fill="white">
            <use xlink:href="#path-1"></use>
        </mask>
        <g id="Combined-Shape" fill-rule="nonzero"></g>
        <g id="01-/-Accent" mask="url(#mask-2)" fill="#F7C51E">
            <rect id="Color" x="0" y="0" width="24" height="24"></rect>
        </g>
    </g>
</svg>