<?xml version="1.0" encoding="UTF-8"?>
<svg width="24px" height="24px" viewBox="0 0 24 24" version="1.1" xmlns="http://www.w3.org/2000/svg" xmlns:xlink="http://www.w3.org/1999/xlink">
    <!-- Generator: Sketch 51.2 (57519) - http://www.bohemiancoding.com/sketch -->
    <title>02 / Sports / Volleyball</title>
    <desc>Created with Sketch.</desc>
    <defs>
        <path d="M13.8005058,6.17585179 C12.6972736,6.57965363 11.4796678,5.99385205 11.083646,4.88371017 C10.6940424,3.76273882 11.2616844,2.52316862 12.3679463,2.12866073 C13.4745671,1.72291929 14.6872296,2.30948863 15.0863609,3.42892446 C15.4778381,4.54019777 14.90908,5.77592917 13.8005058,6.17585179 Z M5.17485155,13.9828085 C5.1073596,13.8514405 5.06275033,13.7100109 5.04445216,13.5651061 C4.90073777,12.8455929 5.10620351,12.0635274 5.65056413,11.5009203 L10.276573,6.81345703 C10.7664378,6.31655408 11.631435,6.23036282 12.20705,6.62062782 L19.5000074,11.5627857 C19.9749625,11.8827399 20.1053619,12.5342053 19.7813368,13.0218547 C19.7496837,13.0697791 19.7130874,13.111117 19.6753748,13.1520508 C19.5198204,13.6246278 19.0833353,13.9445821 18.5953841,13.9445821 C18.5264171,13.9445821 18.4570515,13.9383592 18.3864899,13.9252264 L10.9608608,12.5388118 L10.2872968,13.2405049 L13.8729809,14.7424473 C14.2786103,14.909011 14.5652418,15.2594737 14.6635895,15.684894 L15.968859,21.346161 C16.1305128,22.0698767 15.6829451,22.7878544 14.9719874,22.9655708 C14.2572425,23.1298312 13.5611545,22.6908336 13.3838736,21.9790788 C13.3827573,21.9705931 12.4735495,18.0134321 12.2330023,16.9724291 C11.8567537,16.815523 11.0756729,16.4836078 10.2545275,16.1489853 C10.2991766,16.2367121 10.3544299,16.3166804 10.3864418,16.4078824 C10.4138691,16.4855474 10.4184536,16.5748097 10.4302936,16.6575259 C10.442891,16.7444849 10.4554486,16.8271202 10.4546912,16.9171907 C10.450904,17.0129992 10.420407,17.1018978 10.3914249,17.1988781 C10.3719707,17.2633701 10.374243,17.3248313 10.3468157,17.3951421 L8.25891063,22.0590876 C7.96115673,22.7391622 7.1724617,23.038993 6.50990047,22.7310401 C5.83322692,22.422683 5.53818386,21.6278484 5.84123985,20.9516531 L7.5845094,17.0431439 L5.77067827,14.8093233 C5.73711169,14.7815223 5.7058573,14.761803 5.67233059,14.7340019 C5.53507437,14.5933805 5.41464131,14.4306555 5.32083826,14.252535 C5.25984436,14.1822243 5.22858997,14.0910224 5.17485155,13.9828085 Z M13.4322302,9.96382253 L12.8790992,10.5399665 L14.8065065,10.8997231 L13.4322302,9.96382253 Z M20.1339852,10.1411349 C19.1034137,10.1411349 18.2679704,9.29430852 18.2679704,8.24969526 C18.2679704,7.20508199 19.1034137,6.35825562 20.1339852,6.35825562 C21.1645567,6.35825562 22,7.20508199 22,8.24969526 C22,9.29430852 21.1645567,10.1411349 20.1339852,10.1411349 Z" id="path-1"></path>
    </defs>
    <g id="02-/-Sports-/-Volleyball" stroke="none" stroke-width="1" fill="none" fill-rule="evenodd">
        <mask id="mask-2" fill="white">
            <use xlink:href="#path-1"></use>
        </mask>
        <g id="Combined-Shape" fill-rule="nonzero"></g>
        <g id="01-/-Accent" mask="url(#mask-2)" fill="#F7C51E">
            <rect id="Color" x="0" y="0" width="24" height="24"></rect>
        </g>
    </g>
</svg>