<?xml version="1.0"?>
<svg width="24px" height="24px" fill="#F7C51E"  xmlns="http://www.w3.org/2000/svg" viewBox="0 0 24 24" ><g id="Flat"><path d="M344,368a7.97692,7.97692,0,0,1-5.65527-2.34082l-.75489-.75488A152.2969,152.2969,0,0,0,229.186,320l-.00049-16a168.09285,168.09285,0,0,1,114.71631,44.78418l12.88232-12.88184A168.0975,168.0975,0,0,1,312,221.18555h16a152.30369,152.30369,0,0,0,44.90137,108.40234l.7539.75391a8,8,0,0,1,.00147,11.31543l-24,24A7.97661,7.97661,0,0,1,344,368Z" style="fill:#4d4d4d"/><path d="M210.13,33.17993,179.32,64,72,171.32007,41.18,202.12988A129.64771,129.64771,0,0,1,35.72,184.97L60.68,160,168,52.67993l24.97-24.97A131.22688,131.22688,0,0,1,210.13,33.17993Z" style="fill:#ccc"/><path d="M240.81,50.51,58.51,232.81006A126.822,126.822,0,0,1,49.47,219.21L84.68,184,227.21,41.47A126.79049,126.79049,0,0,1,240.81,50.51Z" style="fill:#ccc"/><path d="M265.24,74.08008,227.32,112,82.08,257.24023q-6.045-5.22033-11.74-10.90039l184-184Q260.01,68.0249,265.24,74.08008Z" style="fill:#ccc"/><path d="M285.63,101.68994,109.69,277.62988q-6.9-4.30517-13.49-9.1499L276.48,88.2Q281.325,94.78479,285.63,101.68994Z" style="fill:#ccc"/><path d="M302.09,133.23,168,267.31982l-26.77,26.77q-7.83-3.31494-15.4-7.23974L264,148.67993l30.85-30.84985Q298.765,125.39014,302.09,133.23Z" style="fill:#ccc"/><path d="M313.95,169.37012,177.37,305.9502Q168.415,303.835,159.68,301L309,151.67993Q311.835,160.41,313.95,169.37012Z" style="fill:#ccc"/><path d="M319.78,211.54,227.32,304l-7.78,7.77979q-3.76493-.13478-7.52-.44c-4.45-.33007-8.87-.81-13.27-1.40966L317.93,190.75c.6,4.3999,1.08,8.82007,1.41,13.27Q319.64,207.77,319.78,211.54Z" style="fill:#ccc"/><path d="M298.81,279.49023q-2.58,3.07471-5.41,5.90967-2.835,2.83521-5.91,5.41016L64.62,67.93994q2.655-3,5.49-5.83008,2.835-2.83483,5.83-5.48974Z" style="fill:#e6e6e6"/><path d="M315.82,248.5a90.14511,90.14511,0,0,1-6.74,15.8999L288,243.32007,90.29,45.60986a126.89352,126.89352,0,0,1,14.37-8.27Z" style="fill:#e6e6e6"/><path d="M272.4,301.08008a90.15488,90.15488,0,0,1-15.9,6.73974L84.68,136,45.34,96.65991A126.809,126.809,0,0,1,53.61,82.29L251.32,280Z" style="fill:#e6e6e6"/><path d="M235.12,311.7998c-1.96.14014-3.94.2002-5.93.2002-3.23,0-6.44-.06982-9.65-.22021q-3.76493-.13478-7.52-.44L204.68,304l-144-144L33.7,133.02a129.086,129.086,0,0,1,4.36-18.28Z" style="fill:#e6e6e6"/><path d="M320,221.18994c0,1.99-.06,3.97-.2,5.93018L122.74,30.06006A129.08,129.08,0,0,1,141.02,25.7L312,196.67993l7.34,7.34009q.29992,3.75.44,7.52C319.93,214.75,320,217.96,320,221.18994Z" style="fill:#e6e6e6"/><path d="M229.186,320A232.964,232.964,0,0,1,64.45117,251.76465,137.2018,137.2018,0,0,1,24,154.10742C24,77.95508,85.95459,16,162.10742,16a137.20426,137.20426,0,0,1,97.65674,40.4502A232.96948,232.96948,0,0,1,328,221.18555,98.92613,98.92613,0,0,1,229.186,320ZM162.10791,32A122.10747,122.10747,0,0,0,75.76416,240.4502,216.96611,216.96611,0,0,0,229.18555,304,82.90822,82.90822,0,0,0,312,221.18555a216.96607,216.96607,0,0,0-63.54883-153.4209A121.31014,121.31014,0,0,0,162.10791,32Z" style="fill:gray"/><path d="M480,416l-56,56-84.69-84.68994a37.90738,37.90738,0,0,1-3.3-3.77,38.61905,38.61905,0,0,1,3.3-50.8501l1.38-1.37988a38.62555,38.62555,0,0,1,42.09-8.37012,38.99959,38.99959,0,0,1,12.53,8.37012Z" style="fill:#3ea7ff"/><path d="M451.31,387.31006a38.62727,38.62727,0,0,0-54.62,0l-1.38,1.37988A38.88047,38.88047,0,0,0,384,416a38.63452,38.63452,0,0,0,11.31,27.31006L368,416a54.96822,54.96822,0,0,1,16-38.62012l1.38-1.38965A54.99991,54.99991,0,0,1,424,360Z" style="fill:#2b7cd4"/><path d="M419.31,355.31006a38.62727,38.62727,0,0,0-54.62,0l-1.38,1.37988A38.88047,38.88047,0,0,0,352,384a38.63452,38.63452,0,0,0,11.31,27.31006l-24-24a37.90738,37.90738,0,0,1-3.3-3.77A54.91507,54.91507,0,0,1,352,345.37988l1.38-1.38965a54.949,54.949,0,0,1,38.16-15.98046,37.93454,37.93454,0,0,1,3.77,3.30029Z" style="fill:#2b7cd4"/><path d="M448,400h0a38.62739,38.62739,0,0,0-27.31368,11.3137l-1.3726,1.3726A38.62739,38.62739,0,0,0,408,440v0a38.62739,38.62739,0,0,0,11.3137,27.31368l1.3726,1.3726A38.62739,38.62739,0,0,0,448,480h0a38.62739,38.62739,0,0,0,27.31368-11.3137l1.3726-1.3726A38.62739,38.62739,0,0,0,488,440v0a38.62739,38.62739,0,0,0-11.3137-27.31368l-1.3726-1.3726A38.62739,38.62739,0,0,0,448,400Z" style="fill:#2b7cd4"/><path d="M248,368a111.92893,111.92893,0,0,1-79.56,107.21973,109.38034,109.38034,0,0,1-17.89,3.84033A112.63015,112.63015,0,0,1,136,480,112.04531,112.04531,0,0,1,25.2,351.6001a109.98272,109.98272,0,0,1,3.83-16.85987A112.09957,112.09957,0,0,1,165.91,260.0498a109.5019,109.5019,0,0,1,19.81,7.57032A112.3559,112.3559,0,0,1,237,319.5498a108.76984,108.76984,0,0,1,7.02,18.81006A111.48287,111.48287,0,0,1,248,368Z" style="fill:#e05e1d"/><path d="M145.78,348.06006a67.05519,67.05519,0,0,1,68.42-18.6499l29.82,8.9497A108.76984,108.76984,0,0,0,237,319.5498l-18.21-5.46a83.19468,83.19468,0,0,0-89.18,28.27q-10.455-3.25488-21.14-5.46a188.08762,188.08762,0,0,1,77.25-69.27978,109.5019,109.5019,0,0,0-19.81-7.57032,203.70334,203.70334,0,0,0-74.42,74c-7.03-.90966-14.11-1.48-21.2-1.71972a258.455,258.455,0,0,0,10.23-61.64014A111.3291,111.3291,0,0,0,63.66,282.5a242.95664,242.95664,0,0,1-10.11,49.89014,222.11625,222.11625,0,0,0-24.52,2.35009A109.98272,109.98272,0,0,0,25.2,351.6001a205.303,205.303,0,0,1,22.59-2.85987,241.88406,241.88406,0,0,1-21.46,42.07959A111.06806,111.06806,0,0,0,32.34,410.48a258.25977,258.25977,0,0,0,32.74-62.26025q9.20992.09009,18.38,1.0205A204.08831,204.08831,0,0,0,64.32,454.06982a112.39346,112.39346,0,0,0,17.55,12,188.10063,188.10063,0,0,1,18.27-114.48974,206.664,206.664,0,0,1,20.58,4.81006A82.72084,82.72084,0,0,0,112,393.54,110.35236,110.35236,0,0,0,139.3,466.21l11.25,12.8501a109.38034,109.38034,0,0,0,17.89-3.84033l-17.1-19.54981A94.332,94.332,0,0,1,128,393.54a66.75343,66.75343,0,0,1,8.11-32.04981,208.88768,208.88768,0,0,1,37.8,18.63965L235.83,418.83008a111.21847,111.21847,0,0,0,6.29-14.93994l-59.73-37.33008A226.924,226.924,0,0,0,145.78,348.06006Z" style="fill:gray"/><path d="M320,440q0,2.26466-.21,4.46973A47.662,47.662,0,0,1,314.68,462,48.01152,48.01152,0,0,1,224,440q0-2.26466.21-4.47021A47.9988,47.9988,0,0,1,320,440Z" style="fill:#e6e6e6"/><path d="M319.79,444.46973A47.662,47.662,0,0,1,314.68,462l-16.34-16.33984a14.606,14.606,0,0,0-20.68006,0,30.637,30.637,0,0,1-43.31994,0l-10.13-10.13037A47.66226,47.66226,0,0,1,229.32,418l16.34,16.33984a14.61057,14.61057,0,0,0,18.5,1.8003,14.77243,14.77243,0,0,0,2.18006-1.8003,30.637,30.637,0,0,1,43.31994,0Z" style="fill:#eb352f"/><path d="M320,440q0,2.26466-.21,4.46973A47.662,47.662,0,0,1,314.68,462a48.166,48.166,0,0,1-22.69,21.64014A47.93273,47.93273,0,0,1,264,440c0-1.2998.05-2.58984.16-3.85986.01-.21.03-.41016.05-.61035A47.66226,47.66226,0,0,1,269.32,418a48.166,48.166,0,0,1,22.69-21.64014A47.9928,47.9928,0,0,1,320,440Z" style="fill:#ccc"/><path d="M319.79,444.46973A47.662,47.662,0,0,1,314.68,462l-16.34-16.33984a14.606,14.606,0,0,0-20.68006,0,30.52184,30.52184,0,0,1-11.87,7.36963A47.83862,47.83862,0,0,1,264,440c0-1.2998.05-2.58984.16-3.85986a14.77243,14.77243,0,0,0,2.18006-1.8003,30.637,30.637,0,0,1,43.31994,0Z" style="fill:#c7161f"/><path d="M376,440q0,2.26466-.21,4.46973A47.99924,47.99924,0,0,1,280,440q0-2.26466.21-4.47021A47.99926,47.99926,0,0,1,376,440Z" style="fill:#e6e6e6"/><path d="M375.79,444.46973A47.662,47.662,0,0,1,370.68,462l-16.34-16.33984a14.606,14.606,0,0,0-20.68006,0,30.637,30.637,0,0,1-43.31994,0l-10.13-10.13037A47.66226,47.66226,0,0,1,285.32,418l16.34,16.33984a14.606,14.606,0,0,0,20.68006,0,30.637,30.637,0,0,1,43.31994,0Z" style="fill:#eb352f"/></g></svg>
