<?xml version="1.0" encoding="UTF-8"?>
<svg width="24px" height="24px" viewBox="0 0 24 24" version="1.1" xmlns="http://www.w3.org/2000/svg" xmlns:xlink="http://www.w3.org/1999/xlink">
    <defs>
        <path d="M9.75780116,16.7539068 L5.19140579,12.2148552 C5.06380179,12.0872512 5,11.923189 5,11.7226688 C5,11.5221486 5.06380179,11.3580865 5.19140579,11.2304825 L6.20312213,10.2461099 C6.33072613,10.100277 6.49023082,10.0273604 6.68163662,10.0273604 C6.87304241,10.0273604 7.04166194,10.100277 7.18749478,10.2461099 L10.2499875,13.3086026 L16.8124718,6.7461182 C16.9583047,6.60028535 17.1269242,6.52736872 17.31833,6.52736872 C17.5097358,6.52736872 17.6692405,6.60028535 17.7968445,6.7461182 L18.8085608,7.73049085 C18.9361648,7.85809485 18.9999666,8.02215696 18.9999666,8.22267718 C18.9999666,8.42319739 18.9361648,8.5872595 18.8085608,8.7148635 L10.7421738,16.7539068 C10.6145698,16.8997397 10.4505077,16.9726563 10.2499875,16.9726563 C10.0494673,16.9726563 9.88540516,16.8997397 9.75780116,16.7539068 Z" id="path-1"></path>
    </defs>
    <g stroke="none" stroke-width="1" fill="none" fill-rule="evenodd">
        <mask id="mask-2" fill="white">
            <use xlink:href="#path-1"></use>
        </mask>
        <use fill="#FFFFFF" xlink:href="#path-1"></use>
        <g mask="url(#mask-2)" fill="#59c5f4">
            <rect  x="0" y="0" width="24" height="24"></rect>
        </g>
    </g>
</svg>