<?xml version="1.0" encoding="UTF-8"?>
<svg width="116px" height="45px" viewBox="0 0 116 45" version="1.1" xmlns="http://www.w3.org/2000/svg" xmlns:xlink="http://www.w3.org/1999/xlink">
    <g stroke="none" stroke-width="1" fill="none" fill-rule="evenodd">
        <path d="M61.845,42 L64.665,31.5 L72.21,31.5 L71.925,32.595 L65.55,32.595 L64.545,36.345 L70.245,36.345 L69.945,37.425 L64.26,37.425 L63.03,42 L61.845,42 Z M74.085,32.55 L74.43,31.275 L75.75,31.275 L75.405,32.55 L74.085,32.55 Z M71.625,42 L73.71,34.245 L74.865,34.245 L72.78,42 L71.625,42 Z M78.255,42.135 C77.145,42.135 76.365,41.61 76.365,40.605 C76.365,40.335 76.41,40.035 76.47,39.795 L77.685,35.265 L76.62,35.265 L76.89,34.245 L77.97,34.245 L78.6,31.905 L79.74,31.905 L79.11,34.245 L81.555,34.245 L81.285,35.265 L78.84,35.265 L77.64,39.735 C77.61,39.915 77.58,40.14 77.58,40.305 C77.58,40.845 77.985,41.1 78.645,41.1 C78.99,41.1 79.35,41.025 79.77,40.86 L79.485,41.91 C79.08,42.075 78.705,42.135 78.255,42.135 Z M81.495,42 L83.565,34.245 L84.72,34.245 L84.39,35.505 C85.095,34.71 85.905,34.08 87.09,34.08 C88.59,34.08 89.565,35.01 89.565,36.48 C89.565,36.84 89.475,37.275 89.37,37.68 L88.23,42 L87.075,42 L88.245,37.605 C88.32,37.35 88.365,36.99 88.365,36.735 C88.365,35.715 87.705,35.115 86.625,35.115 C85.425,35.115 84.225,36.15 83.82,37.62 L82.65,42 L81.495,42 Z M92.325,38.565 C92.31,38.655 92.31,38.745 92.31,38.835 C92.31,40.245 93.21,41.175 94.65,41.175 C95.655,41.175 96.33,40.83 97.035,40.26 L97.635,41.025 C96.87,41.67 95.955,42.18 94.59,42.18 C92.535,42.18 91.155,40.845 91.155,38.88 C91.155,36.51 93.075,34.08 95.67,34.08 C97.635,34.08 98.67,35.43 98.67,37.05 C98.67,37.575 98.565,38.085 98.385,38.565 L92.325,38.565 Z M92.49,37.635 L97.485,37.635 C97.515,37.485 97.545,37.305 97.545,37.05 C97.545,35.985 96.945,35.055 95.61,35.055 C94.08,35.055 92.925,36.21 92.49,37.635 Z M102.525,42.165 C101.325,42.165 100.08,41.715 99.18,40.815 L99.93,40.065 C100.77,40.875 101.7,41.205 102.63,41.205 C103.515,41.205 104.34,40.695 104.34,39.915 C104.34,39.405 103.995,39.03 102.87,38.595 C101.475,38.055 100.68,37.545 100.68,36.465 C100.68,35.145 101.82,34.08 103.62,34.08 C104.76,34.08 105.84,34.59 106.485,35.145 L105.81,35.94 C105.165,35.415 104.355,35.04 103.515,35.04 C102.42,35.04 101.835,35.625 101.835,36.27 C101.835,36.78 102.15,37.11 103.38,37.59 C104.775,38.16 105.495,38.715 105.495,39.72 C105.495,41.16 104.175,42.165 102.525,42.165 Z M109.815,42.165 C108.615,42.165 107.37,41.715 106.47,40.815 L107.22,40.065 C108.06,40.875 108.99,41.205 109.92,41.205 C110.805,41.205 111.63,40.695 111.63,39.915 C111.63,39.405 111.285,39.03 110.16,38.595 C108.765,38.055 107.97,37.545 107.97,36.465 C107.97,35.145 109.11,34.08 110.91,34.08 C112.05,34.08 113.13,34.59 113.775,35.145 L113.1,35.94 C112.455,35.415 111.645,35.04 110.805,35.04 C109.71,35.04 109.125,35.625 109.125,36.27 C109.125,36.78 109.44,37.11 110.67,37.59 C112.065,38.16 112.785,38.715 112.785,39.72 C112.785,41.16 111.465,42.165 109.815,42.165 Z" fill="#F7C51E"></path>
        <path d="M20.4274512,2.7502087 C20.5323554,2.7502087 20.6181862,2.83854221 20.6181862,2.94738171 L20.6181862,26.3155392 C20.6181862,26.4243787 20.5323554,26.5127122 20.4274512,26.5127122 L14.5512874,26.5127122 C14.4460017,26.5127122 14.3605524,26.4243787 14.3605524,26.3155392 L14.3605524,16.873712 L6.25736676,16.873712 L6.25736676,26.3155392 C6.25736676,26.4243787 6.17229895,26.5127122 6.06663176,26.5127122 L0.190849438,26.5127122 C0.0851822498,26.5127122 0.000114440998,26.4243787 0.000114440998,26.3155392 L0.000114440998,2.94738171 C0.000114440998,2.83854221 0.0851822498,2.7502087 0.190849438,2.7502087 L6.06663176,2.7502087 C6.17229895,2.7502087 6.25736676,2.83854221 6.25736676,2.94738171 L6.25736676,11.7689026 L14.3605524,11.7689026 L14.3605524,2.94738171 C14.3605524,2.83854221 14.4460017,2.7502087 14.5512874,2.7502087 L20.4274512,2.7502087 Z M41.5753847,10.2194775 C41.6810519,10.2194775 41.7661197,10.3074167 41.7661197,10.4166506 L41.7661197,26.3154997 C41.7661197,26.4243392 41.6810519,26.5126728 41.5753847,26.5126728 L36.1192194,26.5126728 C36.0131707,26.5126728 35.9284844,26.4243392 35.9284844,26.3154997 L35.9284844,25.0800136 C34.7726303,26.3604552 33.2559056,27.0087601 31.4118797,27.0087601 C30.2720473,27.0087601 29.2081275,26.7895037 28.2475861,26.3565117 C27.2893334,25.9254915 26.4417071,25.3103117 25.7272138,24.5295065 C25.0138649,23.7510675 24.4515782,22.8223825 24.0537049,21.7694786 C23.6573576,20.7185464 23.4559415,19.5575917 23.4559415,18.3197395 C23.4559415,17.1631226 23.652017,16.0498837 24.0388276,15.0099932 C24.4248753,13.969314 24.9722847,13.0461499 25.6654157,12.2665278 C26.3581652,11.4865114 27.1958733,10.8610785 28.1545074,10.4071863 C29.1146674,9.95368832 30.1907942,9.72339023 31.3523704,9.72339023 C33.1529087,9.72339023 34.6902328,10.3279227 35.9284844,11.5220025 L35.9284844,10.4166506 C35.9284844,10.3074167 36.0131707,10.2194775 36.1192194,10.2194775 L41.5753847,10.2194775 Z M34.0814067,21.5159141 C34.4853834,21.3412188 34.8367173,21.0955412 35.1273974,20.7855853 C35.4203664,20.4736575 35.6595481,20.1069157 35.8403648,19.6948241 C36.0177484,19.2886477 36.1077753,18.8465858 36.1077753,18.3816518 C36.1077753,17.9155348 36.0173669,17.467952 35.8396019,17.0511283 C35.6595481,16.6299667 35.4196034,16.2580984 35.1273974,15.9461707 C34.8367173,15.6366091 34.4846205,15.3909315 34.0814067,15.2158418 C33.67743,15.0411465 33.2433171,14.9524187 32.7908937,14.9524187 C32.3186339,14.9524187 31.8746028,15.0411465 31.4706261,15.2158418 C31.0670308,15.3905371 30.7153155,15.6362147 30.4246353,15.9461707 C30.1324293,16.2584928 29.8978253,16.6193194 29.7280711,17.0195806 C29.5594614,17.4162927 29.4740121,17.8536225 29.4740121,18.3197395 C29.4740121,18.8079399 29.5594614,19.2669587 29.7288341,19.6841768 C29.8993511,20.1041553 30.1331923,20.4744462 30.4246353,20.7855853 C30.7145525,21.0955412 31.0662679,21.3412188 31.4706261,21.5159141 C32.2606504,21.8578121 33.2543797,21.8731916 34.0814067,21.5159141 Z M61.0228395,12.2510695 C61.7060523,13.0208329 62.2485026,13.9388705 62.6341688,14.9791553 C63.0209793,16.0210176 63.2170549,17.1445094 63.2170549,18.3196606 C63.2170549,19.5161065 63.0156388,20.6557665 62.6192914,21.7074874 C62.2221812,22.7596026 61.6598944,23.6882876 60.946164,24.4675153 C60.2320522,25.2471374 59.3806112,25.8717816 58.4128218,26.3244908 C57.4419807,26.7783831 56.3818756,27.0086812 55.2611167,27.0086812 C53.3991617,27.0086812 51.8717558,26.3603763 50.7147573,25.0799347 L50.7147573,26.3154209 C50.7147573,26.4242604 50.630071,26.5125939 50.5240223,26.5125939 L45.0979931,26.5125939 C44.9927074,26.5125939 44.9072581,26.4242604 44.9072581,26.3154209 L44.9072581,0.591834532 C44.9072581,0.518091823 44.9465495,0.450658651 45.0098735,0.416744892 C45.0731976,0.382436787 45.149873,0.387957631 45.207475,0.430152657 L50.6335042,4.37361303 C50.6850027,4.41068155 50.7147573,4.4710165 50.7147573,4.5352949 L50.7147573,11.5266558 C51.970938,10.3294212 53.5177988,9.72331136 55.321389,9.72331136 C56.4822022,9.72331136 57.5625252,9.9532151 58.5326034,10.4071074 C59.5019186,10.861394 60.3396267,11.4817003 61.0228395,12.2510695 Z M56.9018192,19.6947452 C57.0792027,19.2881745 57.1692296,18.8567599 57.1692296,18.4123319 C57.1692296,17.9450319 57.0837803,17.4962661 56.9144077,17.0782593 C56.7446535,16.6602525 56.5062348,16.2903559 56.2060179,15.9792169 C55.9035122,15.6672892 55.5487451,15.4149077 55.1523978,15.2291707 C54.7598651,15.0457998 54.3223191,14.9527342 53.852348,14.9527342 C53.3999246,14.9527342 52.9715338,15.0410677 52.5782382,15.215763 C52.1834168,15.3904583 51.8362791,15.6361358 51.545599,15.9460918 C51.2533929,16.2580195 51.0134483,16.6302822 50.8333945,17.0510494 C50.655248,17.4674788 50.5652211,17.9150616 50.5652211,18.3815729 C50.5652211,18.8484787 50.6506704,19.2913293 50.820043,19.6982944 C50.9890342,20.1064425 51.22669,20.4652974 51.526144,20.7657891 C51.8278868,21.0678581 52.1879944,21.3155075 52.5954044,21.5020331 C53.4006875,21.8703523 54.3692399,21.8652258 55.1562125,21.5162296 C55.550271,21.3419286 55.8974087,21.0958567 56.1888517,20.7859007 C56.4806763,20.473973 56.7206209,20.1068369 56.9018192,19.6947452 Z M71.1592602,10.2192804 C71.2649274,10.2192804 71.3499952,10.3076139 71.3499952,10.4164534 L71.3499952,26.3153026 C71.3499952,26.4245364 71.2649274,26.5124756 71.1592602,26.5124756 L65.7328495,26.5124756 C65.6279453,26.5124756 65.5421145,26.4245364 65.5421145,26.3153026 L65.5421145,10.4164534 C65.5421145,10.3076139 65.6279453,10.2192804 65.7328495,10.2192804 L71.1592602,10.2192804 Z M83.9369791,10.2192804 C84.0418834,10.2192804 84.1277141,10.3076139 84.1277141,10.4164534 L84.1277141,15.0961578 C84.1277141,15.2053917 84.0418834,15.2933308 83.9369791,15.2933308 L81.0393331,15.2933308 L81.0393331,26.3153026 C81.0393331,26.4245364 80.9546467,26.5124756 80.8485981,26.5124756 L75.4225689,26.5124756 C75.3172831,26.5124756 75.2318339,26.4245364 75.2318339,26.3153026 L75.2318339,15.2933308 L73.6239378,15.2933308 C73.5182706,15.2933308 73.4332028,15.2053917 73.4332028,15.0961578 L73.4332028,10.4164534 C73.4332028,10.3076139 73.5182706,10.2192804 73.6239378,10.2192804 L75.2318339,10.2192804 L75.2318339,5.64328896 C75.2318339,5.53444945 75.3172831,5.44611594 75.4225689,5.44611594 L80.8485981,5.44611594 C80.9546467,5.44611594 81.0393331,5.53444945 81.0393331,5.64328896 L81.0393331,10.2192804 L83.9369791,10.2192804 Z M103.097111,10.2194775 C103.202778,10.2194775 103.287846,10.3074167 103.287846,10.4166506 L103.287846,26.3154997 C103.287846,26.4243392 103.202778,26.5126728 103.097111,26.5126728 L97.6409454,26.5126728 C97.5348967,26.5126728 97.4502104,26.4243392 97.4502104,26.3154997 L97.4502104,25.0800136 C96.2943563,26.3604552 94.7776316,27.0087601 92.9336056,27.0087601 C91.7937733,27.0087601 90.7298535,26.7895037 89.769312,26.3565117 C88.8110594,25.9254915 87.9634331,25.3103117 87.2489398,24.5295065 C86.5355909,23.7510675 85.9733041,22.8223825 85.5754309,21.7694786 C85.1790836,20.7185464 84.9776674,19.5575917 84.9776674,18.3197395 C84.9776674,17.1631226 85.173743,16.0498837 85.5605536,15.0099932 C85.9466012,13.969314 86.4940107,13.0461499 87.1871416,12.2665278 C87.8798912,11.4865114 88.7179807,10.8610785 89.6762334,10.4071863 C90.6363933,9.95368832 91.7121387,9.72339023 92.8740963,9.72339023 C94.6746347,9.72339023 96.2119588,10.3279227 97.4502104,11.5220025 L97.4502104,10.4166506 C97.4502104,10.3074167 97.5348967,10.2194775 97.6409454,10.2194775 L103.097111,10.2194775 Z M95.6031327,21.5159141 C96.0071094,21.3412188 96.3584433,21.0955412 96.6491234,20.7855853 C96.9420923,20.4736575 97.181274,20.1069157 97.3620908,19.6948241 C97.5394744,19.2886477 97.6295013,18.8465858 97.6295013,18.3816518 C97.6295013,17.9155348 97.5394744,17.467952 97.3613279,17.0511283 C97.181274,16.6299667 96.9413294,16.2580984 96.6491234,15.9461707 C96.3584433,15.6366091 96.0063464,15.3909315 95.6031327,15.2158418 C95.1991559,15.0411465 94.7650431,14.9524187 94.3126197,14.9524187 C93.8403598,14.9524187 93.3963287,15.0411465 92.992352,15.2158418 C92.5887568,15.3905371 92.23666,15.6362147 91.9463613,15.9461707 C91.6541553,16.2584928 91.4195512,16.6193194 91.2497971,17.0195806 C91.0811873,17.4162927 90.9957381,17.8536225 90.9957381,18.3197395 C90.9957381,18.8079399 91.0811873,19.2669587 91.25056,19.6841768 C91.4210771,20.1041553 91.6549182,20.4744462 91.9463613,20.7855853 C92.2362785,21.0955412 92.5879938,21.3412188 92.992352,21.5159141 C93.7823764,21.8578121 94.7761057,21.8731916 95.6031327,21.5159141 Z M115.98496,10.2192804 C116.090627,10.2192804 116.175695,10.3076139 116.175695,10.4164534 L116.175695,15.0961578 C116.175695,15.2053917 116.090627,15.2933308 115.98496,15.2933308 L113.088077,15.2933308 L113.088077,26.3153026 C113.088077,26.4245364 113.002628,26.5124756 112.897342,26.5124756 L107.471313,26.5124756 C107.365264,26.5124756 107.280578,26.4245364 107.280578,26.3153026 L107.280578,15.2933308 L105.671919,15.2933308 C105.566633,15.2933308 105.481184,15.2053917 105.481184,15.0961578 L105.481184,10.4164534 C105.481184,10.3076139 105.566633,10.2192804 105.671919,10.2192804 L107.280578,10.2192804 L107.280578,5.64328896 C107.280578,5.53444945 107.365264,5.44611594 107.471313,5.44611594 L112.897342,5.44611594 C113.002628,5.44611594 113.088077,5.53444945 113.088077,5.64328896 L113.088077,10.2192804 L115.98496,10.2192804 Z" fill="#FEFEFE"></path>
        <path d="M70.7248803,1.93994589 C70.4292411,1.63511641 70.0817219,1.39141056 69.6914781,1.21671526 C68.904887,0.866141635 67.9546452,0.866930327 67.1718688,1.21671526 C66.7804806,1.39141056 66.4325799,1.63511641 66.1377036,1.93994589 C65.8424459,2.24516973 65.6070789,2.60481331 65.4380877,3.00862365 C65.268715,3.41322269 65.1825028,3.85173548 65.1825028,4.31114861 C65.1825028,4.77056175 65.268715,5.20868019 65.4380877,5.61288488 C65.6070789,6.01708957 65.8424459,6.37673315 66.1377036,6.68156264 C66.4333429,6.98796951 66.7812435,7.23128102 67.1711058,7.40518762 C67.5621126,7.58027726 67.9859258,7.66900512 68.4314827,7.66900512 C68.8755138,7.66900512 69.2997084,7.5806716 69.6914781,7.40518762 C70.0813404,7.23088667 70.4292411,6.98757517 70.7248803,6.68156264 C71.0205196,6.37633881 71.2558866,6.01669522 71.4244963,5.61288488 C71.5942504,5.20749716 71.6800812,4.76937871 71.6800812,4.31114861 C71.6800812,3.85291852 71.5942504,3.41480007 71.4244963,3.00822931 C71.2555051,2.60520766 71.0197566,2.24556407 70.7248803,1.93994589" fill="#F7C51E"></path>
    </g>
</svg>