<?xml version="1.0" encoding="UTF-8"?>
<svg width="24px" height="24px" viewBox="0 0 24 24" version="1.1" xmlns="http://www.w3.org/2000/svg" xmlns:xlink="http://www.w3.org/1999/xlink">
    <defs>
        <path d="M18.3111624,16.5877046 L5.90306337,16.5877046 C5.6212757,16.5877046 5.40977759,16.3764163 5.40977759,16.0937893 L5.40977759,8.04741922 L11.6141418,13.4823752 C11.7551406,13.6231641 11.8961393,13.6231641 12.1076374,13.6231641 C12.2484264,13.6231641 12.4599245,13.5526647 12.5304238,13.4823752 L18.804658,8.25891733 L18.804658,16.0937893 C18.804658,16.3764163 18.5931599,16.5877046 18.3111624,16.5877046 Z M17.6063785,7.41145615 L12.1076374,11.9995804 L6.82018464,7.41145615 L17.6063785,7.41145615 Z M18.3111624,6 L5.90306337,6 C4.84578263,6 4,6.84683172 4,7.9055812 L4,16.1640789 C4,17.1525388 4.84578263,18 5.90306337,18 L18.3816618,18 C19.4397818,18 20.2855644,17.1525388 20.2855644,16.0937893 L20.2855644,7.9055812 C20.215065,6.84683172 19.3684431,6 18.3111624,6 Z" id="path-1"></path>
    </defs>
    <g stroke="none" stroke-width="1" fill="none" fill-rule="evenodd">
        <mask id="mask-2" fill="white">
            <use xlink:href="#path-1"></use>
        </mask>
        <g mask="url(#mask-2)" fill="#59c5f4">
            <rect id="Color" x="0" y="0" width="24" height="24"></rect>
        </g>
    </g>
</svg>